<svg preserveAspectRatio="none" overflow="visible" style="display: block;" width="23" height="19" viewBox="0 0 23 19" fill="none" xmlns="http://www.w3.org/2000/svg">
<path id="&#235;&#179;&#180;&#234;&#180;&#128;&#237;&#149;&#168;" d="M0.00188064 6.34928C0.0361992 2.83685 2.91887 0 6.46988 0C8.50184 0 10.315 0.928891 11.5008 2.38172C12.6866 0.928891 14.4997 0 16.5317 0C20.104 0 23 2.87106 23 6.41268C23 6.50113 22.9982 6.58923 22.9946 6.67696C22.8724 10.7306 19.8923 13.8195 17.3303 15.7666C16.0091 16.7706 14.7023 17.5451 13.7295 18.0678C13.2415 18.33 12.8333 18.5311 12.544 18.668C12.3992 18.7365 12.2839 18.789 12.2028 18.8253C12.1623 18.8434 12.1303 18.8575 12.1074 18.8675L12.0801 18.8793L12.0717 18.8829L12.0689 18.8841C11.7119 19.0385 11.2903 19.0385 10.9339 18.8846L10.9299 18.8829L10.9214 18.8793L10.8935 18.8672C10.8703 18.8571 10.8377 18.8427 10.7964 18.8243C10.7138 18.7873 10.5963 18.7337 10.4489 18.6639C10.1541 18.5243 9.73854 18.3193 9.2422 18.0519C8.25295 17.5191 6.92563 16.7294 5.59 15.7056C2.99876 13.7194 0.000154674 10.561 0 6.42224C0 6.39785 0.000628976 6.37352 0.00188064 6.34928Z" fill="#757575"/>
</svg>
